<mxfile host="app.diagrams.net" modified="2023-11-22T19:45:10.761Z" agent="Mozilla/5.0 (Windows NT 10.0; Win64; x64) AppleWebKit/537.36 (KHTML, like Gecko) Chrome/119.0.0.0 Safari/537.36" etag="n8FMgMJDDLxnCGGw12W1" version="22.1.3" type="device">
  <diagram name="1 oldal" id="lBtonzgYwCVC0UIq_4Ln">
    <mxGraphModel dx="3217" dy="1280" grid="1" gridSize="10" guides="1" tooltips="1" connect="1" arrows="1" fold="1" page="1" pageScale="1" pageWidth="827" pageHeight="1169" math="0" shadow="0">
      <root>
        <mxCell id="0" />
        <mxCell id="1" parent="0" />
        <mxCell id="DX1j56dp4TYLlOPwhKhY-3" style="edgeStyle=orthogonalEdgeStyle;rounded=0;orthogonalLoop=1;jettySize=auto;html=1;" parent="1" target="DX1j56dp4TYLlOPwhKhY-2" edge="1">
          <mxGeometry relative="1" as="geometry">
            <mxPoint x="420" y="10" as="sourcePoint" />
          </mxGeometry>
        </mxCell>
        <mxCell id="VWEZHHtJbzwDngec_MSK-5" value="Request comes in" style="edgeLabel;html=1;align=center;verticalAlign=middle;resizable=0;points=[];" vertex="1" connectable="0" parent="DX1j56dp4TYLlOPwhKhY-3">
          <mxGeometry x="-0.052" y="1" relative="1" as="geometry">
            <mxPoint as="offset" />
          </mxGeometry>
        </mxCell>
        <mxCell id="DX1j56dp4TYLlOPwhKhY-2" value="API" style="rounded=0;whiteSpace=wrap;html=1;fillColor=#dae8fc;strokeColor=#6c8ebf;" parent="1" vertex="1">
          <mxGeometry x="120" y="115" width="600" height="60" as="geometry" />
        </mxCell>
        <mxCell id="DX1j56dp4TYLlOPwhKhY-4" value="" style="rounded=0;whiteSpace=wrap;html=1;fillColor=#ffe6cc;strokeColor=#d79b00;" parent="1" vertex="1">
          <mxGeometry x="-155" y="242" width="1150" height="838" as="geometry" />
        </mxCell>
        <mxCell id="DX1j56dp4TYLlOPwhKhY-5" value="User Microservice" style="text;html=1;strokeColor=none;fillColor=none;align=center;verticalAlign=middle;whiteSpace=wrap;rounded=0;fontSize=30;fontStyle=1" parent="1" vertex="1">
          <mxGeometry x="60" y="200" width="370" height="30" as="geometry" />
        </mxCell>
        <mxCell id="DX1j56dp4TYLlOPwhKhY-8" value="Initial event" style="ellipse;whiteSpace=wrap;html=1;" parent="1" vertex="1">
          <mxGeometry x="330" y="260" width="180" height="70" as="geometry" />
        </mxCell>
        <mxCell id="DX1j56dp4TYLlOPwhKhY-20" style="edgeStyle=orthogonalEdgeStyle;rounded=0;orthogonalLoop=1;jettySize=auto;html=1;exitX=0;exitY=0.5;exitDx=0;exitDy=0;exitPerimeter=0;entryX=0.5;entryY=0;entryDx=0;entryDy=0;" parent="1" source="DX1j56dp4TYLlOPwhKhY-16" target="DX1j56dp4TYLlOPwhKhY-19" edge="1">
          <mxGeometry relative="1" as="geometry" />
        </mxCell>
        <mxCell id="DX1j56dp4TYLlOPwhKhY-16" value="" style="shape=cylinder3;whiteSpace=wrap;html=1;boundedLbl=1;backgroundOutline=1;size=15;rotation=-90;fillColor=#1ba1e2;fontColor=#ffffff;strokeColor=#006EAF;" parent="1" vertex="1">
          <mxGeometry x="387.5" y="339.75" width="65" height="127.5" as="geometry" />
        </mxCell>
        <mxCell id="DX1j56dp4TYLlOPwhKhY-17" value="Event Queue" style="text;html=1;strokeColor=none;fillColor=none;align=center;verticalAlign=middle;whiteSpace=wrap;rounded=0;" parent="1" vertex="1">
          <mxGeometry x="387.5" y="390" width="80" height="30" as="geometry" />
        </mxCell>
        <mxCell id="DX1j56dp4TYLlOPwhKhY-18" style="edgeStyle=orthogonalEdgeStyle;rounded=0;orthogonalLoop=1;jettySize=auto;html=1;exitX=0.5;exitY=1;exitDx=0;exitDy=0;entryX=1;entryY=0.5;entryDx=0;entryDy=0;entryPerimeter=0;" parent="1" source="DX1j56dp4TYLlOPwhKhY-8" target="DX1j56dp4TYLlOPwhKhY-16" edge="1">
          <mxGeometry relative="1" as="geometry" />
        </mxCell>
        <mxCell id="DX1j56dp4TYLlOPwhKhY-19" value="Event Mediator" style="rounded=0;whiteSpace=wrap;html=1;fillColor=#f0a30a;fontColor=#000000;strokeColor=#BD7000;" parent="1" vertex="1">
          <mxGeometry x="330" y="470" width="180" height="130" as="geometry" />
        </mxCell>
        <mxCell id="DX1j56dp4TYLlOPwhKhY-48" style="edgeStyle=orthogonalEdgeStyle;rounded=0;orthogonalLoop=1;jettySize=auto;html=1;exitX=0;exitY=0.5;exitDx=0;exitDy=0;exitPerimeter=0;entryX=0.5;entryY=0;entryDx=0;entryDy=0;" parent="1" source="DX1j56dp4TYLlOPwhKhY-25" target="DX1j56dp4TYLlOPwhKhY-45" edge="1">
          <mxGeometry relative="1" as="geometry" />
        </mxCell>
        <mxCell id="DX1j56dp4TYLlOPwhKhY-25" value="" style="shape=cylinder3;whiteSpace=wrap;html=1;boundedLbl=1;backgroundOutline=1;size=15;rotation=-90;fillColor=#b1ddf0;strokeColor=#10739e;" parent="1" vertex="1">
          <mxGeometry x="100" y="640" width="65" height="127.5" as="geometry" />
        </mxCell>
        <mxCell id="DX1j56dp4TYLlOPwhKhY-26" value="Event Channel" style="text;html=1;strokeColor=none;fillColor=none;align=center;verticalAlign=middle;whiteSpace=wrap;rounded=0;" parent="1" vertex="1">
          <mxGeometry x="100" y="690.25" width="80" height="30" as="geometry" />
        </mxCell>
        <mxCell id="DX1j56dp4TYLlOPwhKhY-51" style="edgeStyle=orthogonalEdgeStyle;rounded=0;orthogonalLoop=1;jettySize=auto;html=1;exitX=0;exitY=0.5;exitDx=0;exitDy=0;exitPerimeter=0;entryX=0.5;entryY=0;entryDx=0;entryDy=0;" parent="1" source="DX1j56dp4TYLlOPwhKhY-31" target="DX1j56dp4TYLlOPwhKhY-50" edge="1">
          <mxGeometry relative="1" as="geometry" />
        </mxCell>
        <mxCell id="DX1j56dp4TYLlOPwhKhY-31" value="" style="shape=cylinder3;whiteSpace=wrap;html=1;boundedLbl=1;backgroundOutline=1;size=15;rotation=-90;fillColor=#b1ddf0;strokeColor=#10739e;" parent="1" vertex="1">
          <mxGeometry x="250" y="640" width="65" height="127.5" as="geometry" />
        </mxCell>
        <mxCell id="DX1j56dp4TYLlOPwhKhY-32" value="Event Channel" style="text;html=1;strokeColor=none;fillColor=none;align=center;verticalAlign=middle;whiteSpace=wrap;rounded=0;" parent="1" vertex="1">
          <mxGeometry x="250" y="690.25" width="80" height="30" as="geometry" />
        </mxCell>
        <mxCell id="DX1j56dp4TYLlOPwhKhY-54" style="edgeStyle=orthogonalEdgeStyle;rounded=0;orthogonalLoop=1;jettySize=auto;html=1;exitX=0;exitY=0.5;exitDx=0;exitDy=0;exitPerimeter=0;entryX=0.5;entryY=0;entryDx=0;entryDy=0;" parent="1" source="DX1j56dp4TYLlOPwhKhY-33" target="DX1j56dp4TYLlOPwhKhY-53" edge="1">
          <mxGeometry relative="1" as="geometry" />
        </mxCell>
        <mxCell id="DX1j56dp4TYLlOPwhKhY-33" value="" style="shape=cylinder3;whiteSpace=wrap;html=1;boundedLbl=1;backgroundOutline=1;size=15;rotation=-90;fillColor=#b1ddf0;strokeColor=#10739e;" parent="1" vertex="1">
          <mxGeometry x="395" y="640" width="65" height="127.5" as="geometry" />
        </mxCell>
        <mxCell id="DX1j56dp4TYLlOPwhKhY-34" value="Event Channel" style="text;html=1;strokeColor=none;fillColor=none;align=center;verticalAlign=middle;whiteSpace=wrap;rounded=0;" parent="1" vertex="1">
          <mxGeometry x="395" y="688.75" width="80" height="30" as="geometry" />
        </mxCell>
        <mxCell id="DX1j56dp4TYLlOPwhKhY-35" value="" style="shape=cylinder3;whiteSpace=wrap;html=1;boundedLbl=1;backgroundOutline=1;size=15;rotation=-90;fillColor=#b1ddf0;strokeColor=#10739e;" parent="1" vertex="1">
          <mxGeometry x="550" y="640" width="65" height="127.5" as="geometry" />
        </mxCell>
        <mxCell id="DX1j56dp4TYLlOPwhKhY-36" value="Event Channel" style="text;html=1;strokeColor=none;fillColor=none;align=center;verticalAlign=middle;whiteSpace=wrap;rounded=0;" parent="1" vertex="1">
          <mxGeometry x="550" y="690.25" width="80" height="30" as="geometry" />
        </mxCell>
        <mxCell id="DX1j56dp4TYLlOPwhKhY-65" style="edgeStyle=orthogonalEdgeStyle;rounded=0;orthogonalLoop=1;jettySize=auto;html=1;exitX=0;exitY=0.5;exitDx=0;exitDy=0;exitPerimeter=0;entryX=0.5;entryY=0;entryDx=0;entryDy=0;" parent="1" source="DX1j56dp4TYLlOPwhKhY-37" target="DX1j56dp4TYLlOPwhKhY-64" edge="1">
          <mxGeometry relative="1" as="geometry">
            <mxPoint x="708" y="800" as="targetPoint" />
          </mxGeometry>
        </mxCell>
        <mxCell id="DX1j56dp4TYLlOPwhKhY-37" value="" style="shape=cylinder3;whiteSpace=wrap;html=1;boundedLbl=1;backgroundOutline=1;size=15;rotation=-90;fillColor=#b1ddf0;strokeColor=#10739e;" parent="1" vertex="1">
          <mxGeometry x="700" y="640" width="65" height="127.5" as="geometry" />
        </mxCell>
        <mxCell id="DX1j56dp4TYLlOPwhKhY-38" value="Event Channel" style="text;html=1;strokeColor=none;fillColor=none;align=center;verticalAlign=middle;whiteSpace=wrap;rounded=0;" parent="1" vertex="1">
          <mxGeometry x="700" y="690.25" width="80" height="30" as="geometry" />
        </mxCell>
        <mxCell id="DX1j56dp4TYLlOPwhKhY-40" style="edgeStyle=orthogonalEdgeStyle;rounded=0;orthogonalLoop=1;jettySize=auto;html=1;exitX=0;exitY=0.5;exitDx=0;exitDy=0;" parent="1" source="DX1j56dp4TYLlOPwhKhY-19" target="DX1j56dp4TYLlOPwhKhY-25" edge="1">
          <mxGeometry relative="1" as="geometry">
            <mxPoint x="143" y="670" as="targetPoint" />
          </mxGeometry>
        </mxCell>
        <mxCell id="DX1j56dp4TYLlOPwhKhY-41" style="edgeStyle=orthogonalEdgeStyle;rounded=0;orthogonalLoop=1;jettySize=auto;html=1;exitX=0.5;exitY=1;exitDx=0;exitDy=0;" parent="1" edge="1">
          <mxGeometry relative="1" as="geometry">
            <mxPoint x="416" y="601" as="sourcePoint" />
            <mxPoint x="417" y="671" as="targetPoint" />
          </mxGeometry>
        </mxCell>
        <mxCell id="DX1j56dp4TYLlOPwhKhY-42" style="edgeStyle=orthogonalEdgeStyle;rounded=0;orthogonalLoop=1;jettySize=auto;html=1;exitX=0;exitY=0.75;exitDx=0;exitDy=0;entryX=1;entryY=0.5;entryDx=0;entryDy=0;entryPerimeter=0;" parent="1" source="DX1j56dp4TYLlOPwhKhY-19" target="DX1j56dp4TYLlOPwhKhY-31" edge="1">
          <mxGeometry relative="1" as="geometry" />
        </mxCell>
        <mxCell id="DX1j56dp4TYLlOPwhKhY-43" style="edgeStyle=orthogonalEdgeStyle;rounded=0;orthogonalLoop=1;jettySize=auto;html=1;exitX=1;exitY=0.75;exitDx=0;exitDy=0;entryX=1;entryY=0.5;entryDx=0;entryDy=0;entryPerimeter=0;" parent="1" source="DX1j56dp4TYLlOPwhKhY-19" target="DX1j56dp4TYLlOPwhKhY-35" edge="1">
          <mxGeometry relative="1" as="geometry" />
        </mxCell>
        <mxCell id="DX1j56dp4TYLlOPwhKhY-44" style="edgeStyle=orthogonalEdgeStyle;rounded=0;orthogonalLoop=1;jettySize=auto;html=1;exitX=1;exitY=0.5;exitDx=0;exitDy=0;entryX=1;entryY=0.5;entryDx=0;entryDy=0;entryPerimeter=0;" parent="1" source="DX1j56dp4TYLlOPwhKhY-19" target="DX1j56dp4TYLlOPwhKhY-37" edge="1">
          <mxGeometry relative="1" as="geometry" />
        </mxCell>
        <mxCell id="DX1j56dp4TYLlOPwhKhY-88" style="edgeStyle=orthogonalEdgeStyle;rounded=0;orthogonalLoop=1;jettySize=auto;html=1;exitX=0.25;exitY=1;exitDx=0;exitDy=0;" parent="1" source="DX1j56dp4TYLlOPwhKhY-45" edge="1">
          <mxGeometry relative="1" as="geometry">
            <mxPoint x="-280" y="895" as="targetPoint" />
            <Array as="points">
              <mxPoint x="102" y="895" />
              <mxPoint x="-280" y="895" />
            </Array>
          </mxGeometry>
        </mxCell>
        <mxCell id="DX1j56dp4TYLlOPwhKhY-89" value="3rd Party Service" style="edgeLabel;html=1;align=center;verticalAlign=middle;resizable=0;points=[];" parent="DX1j56dp4TYLlOPwhKhY-88" vertex="1" connectable="0">
          <mxGeometry x="0.8253" y="-1" relative="1" as="geometry">
            <mxPoint x="30" y="1" as="offset" />
          </mxGeometry>
        </mxCell>
        <mxCell id="DX1j56dp4TYLlOPwhKhY-45" value="" style="rounded=1;whiteSpace=wrap;html=1;fillColor=#fad7ac;strokeColor=#b46504;" parent="1" vertex="1">
          <mxGeometry x="72" y="800" width="120" height="60" as="geometry" />
        </mxCell>
        <mxCell id="DX1j56dp4TYLlOPwhKhY-46" value="Sign up event processor" style="text;html=1;strokeColor=none;fillColor=none;align=center;verticalAlign=middle;whiteSpace=wrap;rounded=0;" parent="1" vertex="1">
          <mxGeometry x="85" y="815" width="90" height="30" as="geometry" />
        </mxCell>
        <mxCell id="DX1j56dp4TYLlOPwhKhY-49" style="edgeStyle=orthogonalEdgeStyle;rounded=0;orthogonalLoop=1;jettySize=auto;html=1;exitX=0.5;exitY=1;exitDx=0;exitDy=0;" parent="1" source="DX1j56dp4TYLlOPwhKhY-45" edge="1">
          <mxGeometry relative="1" as="geometry">
            <mxPoint x="210" y="1160" as="targetPoint" />
          </mxGeometry>
        </mxCell>
        <mxCell id="DX1j56dp4TYLlOPwhKhY-52" style="edgeStyle=orthogonalEdgeStyle;rounded=0;orthogonalLoop=1;jettySize=auto;html=1;exitX=0.5;exitY=1;exitDx=0;exitDy=0;" parent="1" source="DX1j56dp4TYLlOPwhKhY-50" edge="1">
          <mxGeometry relative="1" as="geometry">
            <mxPoint x="210" y="1160" as="targetPoint" />
          </mxGeometry>
        </mxCell>
        <mxCell id="VWEZHHtJbzwDngec_MSK-3" value="Goes to the&lt;br&gt;User&lt;br&gt;database" style="edgeLabel;html=1;align=center;verticalAlign=middle;resizable=0;points=[];" vertex="1" connectable="0" parent="DX1j56dp4TYLlOPwhKhY-52">
          <mxGeometry x="0.7616" y="1" relative="1" as="geometry">
            <mxPoint as="offset" />
          </mxGeometry>
        </mxCell>
        <mxCell id="DX1j56dp4TYLlOPwhKhY-90" style="edgeStyle=orthogonalEdgeStyle;rounded=0;orthogonalLoop=1;jettySize=auto;html=1;exitX=0.25;exitY=0;exitDx=0;exitDy=0;" parent="1" source="DX1j56dp4TYLlOPwhKhY-50" edge="1">
          <mxGeometry relative="1" as="geometry">
            <mxPoint x="-280" y="776" as="targetPoint" />
            <Array as="points">
              <mxPoint x="252" y="776" />
              <mxPoint x="-280" y="776" />
            </Array>
          </mxGeometry>
        </mxCell>
        <mxCell id="DX1j56dp4TYLlOPwhKhY-91" value="3rd Party Service" style="edgeLabel;html=1;align=center;verticalAlign=middle;resizable=0;points=[];" parent="DX1j56dp4TYLlOPwhKhY-90" vertex="1" connectable="0">
          <mxGeometry x="0.7484" relative="1" as="geometry">
            <mxPoint as="offset" />
          </mxGeometry>
        </mxCell>
        <mxCell id="DX1j56dp4TYLlOPwhKhY-50" value="Login event&lt;br&gt;processor" style="rounded=1;whiteSpace=wrap;html=1;fillColor=#fad7ac;strokeColor=#b46504;" parent="1" vertex="1">
          <mxGeometry x="222.5" y="800" width="120" height="60" as="geometry" />
        </mxCell>
        <mxCell id="DX1j56dp4TYLlOPwhKhY-60" style="edgeStyle=orthogonalEdgeStyle;rounded=0;orthogonalLoop=1;jettySize=auto;html=1;exitX=0.5;exitY=1;exitDx=0;exitDy=0;" parent="1" source="DX1j56dp4TYLlOPwhKhY-53" edge="1">
          <mxGeometry relative="1" as="geometry">
            <mxPoint x="1100" y="920" as="targetPoint" />
            <Array as="points">
              <mxPoint x="428" y="920" />
              <mxPoint x="960" y="920" />
            </Array>
          </mxGeometry>
        </mxCell>
        <mxCell id="DX1j56dp4TYLlOPwhKhY-61" value="Turns to Event Service" style="edgeLabel;html=1;align=center;verticalAlign=middle;resizable=0;points=[];" parent="DX1j56dp4TYLlOPwhKhY-60" vertex="1" connectable="0">
          <mxGeometry x="0.6974" relative="1" as="geometry">
            <mxPoint x="13" as="offset" />
          </mxGeometry>
        </mxCell>
        <mxCell id="DX1j56dp4TYLlOPwhKhY-53" value="Event registration&lt;br&gt;event processor" style="rounded=1;whiteSpace=wrap;html=1;fillColor=#fad7ac;strokeColor=#b46504;" parent="1" vertex="1">
          <mxGeometry x="367.5" y="800" width="120" height="60" as="geometry" />
        </mxCell>
        <mxCell id="DX1j56dp4TYLlOPwhKhY-62" value="Event age restriction&lt;br&gt;event processor" style="rounded=1;whiteSpace=wrap;html=1;fillColor=#fad7ac;strokeColor=#b46504;" parent="1" vertex="1">
          <mxGeometry x="522.5" y="800" width="120" height="60" as="geometry" />
        </mxCell>
        <mxCell id="DX1j56dp4TYLlOPwhKhY-63" style="edgeStyle=orthogonalEdgeStyle;rounded=0;orthogonalLoop=1;jettySize=auto;html=1;exitX=0;exitY=0.5;exitDx=0;exitDy=0;exitPerimeter=0;entryX=0.5;entryY=0;entryDx=0;entryDy=0;" parent="1" source="DX1j56dp4TYLlOPwhKhY-35" target="DX1j56dp4TYLlOPwhKhY-62" edge="1">
          <mxGeometry relative="1" as="geometry" />
        </mxCell>
        <mxCell id="DX1j56dp4TYLlOPwhKhY-64" value="Event maximum capacity event processor" style="rounded=1;whiteSpace=wrap;html=1;fillColor=#fad7ac;strokeColor=#b46504;" parent="1" vertex="1">
          <mxGeometry x="672.5" y="800" width="120" height="60" as="geometry" />
        </mxCell>
        <mxCell id="DX1j56dp4TYLlOPwhKhY-76" style="edgeStyle=orthogonalEdgeStyle;rounded=0;orthogonalLoop=1;jettySize=auto;html=1;exitX=0;exitY=0.5;exitDx=0;exitDy=0;exitPerimeter=0;entryX=0.471;entryY=0;entryDx=0;entryDy=0;entryPerimeter=0;" parent="1" source="DX1j56dp4TYLlOPwhKhY-71" target="DX1j56dp4TYLlOPwhKhY-74" edge="1">
          <mxGeometry relative="1" as="geometry" />
        </mxCell>
        <mxCell id="DX1j56dp4TYLlOPwhKhY-71" value="" style="shape=cylinder3;whiteSpace=wrap;html=1;boundedLbl=1;backgroundOutline=1;size=15;rotation=-90;fillColor=#b1ddf0;strokeColor=#10739e;" parent="1" vertex="1">
          <mxGeometry x="850" y="641.5" width="65" height="127.5" as="geometry" />
        </mxCell>
        <mxCell id="DX1j56dp4TYLlOPwhKhY-72" value="Event Channel" style="text;html=1;strokeColor=none;fillColor=none;align=center;verticalAlign=middle;whiteSpace=wrap;rounded=0;" parent="1" vertex="1">
          <mxGeometry x="850" y="691.75" width="80" height="30" as="geometry" />
        </mxCell>
        <mxCell id="DX1j56dp4TYLlOPwhKhY-73" style="edgeStyle=orthogonalEdgeStyle;rounded=0;orthogonalLoop=1;jettySize=auto;html=1;exitX=1;exitY=0.25;exitDx=0;exitDy=0;entryX=1;entryY=0.5;entryDx=0;entryDy=0;entryPerimeter=0;" parent="1" source="DX1j56dp4TYLlOPwhKhY-19" target="DX1j56dp4TYLlOPwhKhY-71" edge="1">
          <mxGeometry relative="1" as="geometry" />
        </mxCell>
        <mxCell id="DX1j56dp4TYLlOPwhKhY-74" value="Authentication &amp;amp; authorization event processor" style="rounded=1;whiteSpace=wrap;html=1;fillColor=#fad7ac;strokeColor=#b46504;" parent="1" vertex="1">
          <mxGeometry x="826" y="800" width="120" height="60" as="geometry" />
        </mxCell>
        <mxCell id="DX1j56dp4TYLlOPwhKhY-78" style="edgeStyle=orthogonalEdgeStyle;rounded=0;orthogonalLoop=1;jettySize=auto;html=1;exitX=0.5;exitY=1;exitDx=0;exitDy=0;entryX=0.5;entryY=0;entryDx=0;entryDy=0;" parent="1" source="DX1j56dp4TYLlOPwhKhY-2" target="DX1j56dp4TYLlOPwhKhY-4" edge="1">
          <mxGeometry relative="1" as="geometry" />
        </mxCell>
        <mxCell id="DX1j56dp4TYLlOPwhKhY-86" style="edgeStyle=orthogonalEdgeStyle;rounded=0;orthogonalLoop=1;jettySize=auto;html=1;exitX=0;exitY=0.5;exitDx=0;exitDy=0;exitPerimeter=0;entryX=0.5;entryY=0;entryDx=0;entryDy=0;" parent="1" source="DX1j56dp4TYLlOPwhKhY-79" target="DX1j56dp4TYLlOPwhKhY-82" edge="1">
          <mxGeometry relative="1" as="geometry" />
        </mxCell>
        <mxCell id="DX1j56dp4TYLlOPwhKhY-79" value="" style="shape=cylinder3;whiteSpace=wrap;html=1;boundedLbl=1;backgroundOutline=1;size=15;rotation=-90;fillColor=#b1ddf0;strokeColor=#10739e;" parent="1" vertex="1">
          <mxGeometry x="-49.5" y="640" width="65" height="127.5" as="geometry" />
        </mxCell>
        <mxCell id="DX1j56dp4TYLlOPwhKhY-80" value="Event Channel" style="text;html=1;strokeColor=none;fillColor=none;align=center;verticalAlign=middle;whiteSpace=wrap;rounded=0;" parent="1" vertex="1">
          <mxGeometry x="-49.5" y="690.25" width="80" height="30" as="geometry" />
        </mxCell>
        <mxCell id="DX1j56dp4TYLlOPwhKhY-82" value="" style="rounded=1;whiteSpace=wrap;html=1;fillColor=#fad7ac;strokeColor=#b46504;" parent="1" vertex="1">
          <mxGeometry x="-77" y="800" width="120" height="60" as="geometry" />
        </mxCell>
        <mxCell id="DX1j56dp4TYLlOPwhKhY-83" value="User RUD&lt;br&gt;event processor" style="text;html=1;strokeColor=none;fillColor=none;align=center;verticalAlign=middle;whiteSpace=wrap;rounded=0;" parent="1" vertex="1">
          <mxGeometry x="-62" y="815" width="90" height="30" as="geometry" />
        </mxCell>
        <mxCell id="DX1j56dp4TYLlOPwhKhY-85" style="edgeStyle=orthogonalEdgeStyle;rounded=0;orthogonalLoop=1;jettySize=auto;html=1;exitX=0;exitY=0.25;exitDx=0;exitDy=0;entryX=1;entryY=0.5;entryDx=0;entryDy=0;entryPerimeter=0;" parent="1" source="DX1j56dp4TYLlOPwhKhY-19" target="DX1j56dp4TYLlOPwhKhY-79" edge="1">
          <mxGeometry relative="1" as="geometry" />
        </mxCell>
        <mxCell id="DX1j56dp4TYLlOPwhKhY-87" style="edgeStyle=orthogonalEdgeStyle;rounded=0;orthogonalLoop=1;jettySize=auto;html=1;exitX=0.5;exitY=1;exitDx=0;exitDy=0;" parent="1" edge="1">
          <mxGeometry relative="1" as="geometry">
            <mxPoint x="-17" y="860" as="sourcePoint" />
            <mxPoint x="80" y="1180" as="targetPoint" />
            <Array as="points">
              <mxPoint x="-17" y="917" />
              <mxPoint x="80" y="917" />
              <mxPoint x="80" y="1160" />
            </Array>
          </mxGeometry>
        </mxCell>
        <mxCell id="VWEZHHtJbzwDngec_MSK-2" value="Goes to the&lt;br&gt;User&lt;br&gt;database" style="edgeLabel;html=1;align=center;verticalAlign=middle;resizable=0;points=[];" vertex="1" connectable="0" parent="DX1j56dp4TYLlOPwhKhY-87">
          <mxGeometry x="0.7733" relative="1" as="geometry">
            <mxPoint y="-122" as="offset" />
          </mxGeometry>
        </mxCell>
      </root>
    </mxGraphModel>
  </diagram>
</mxfile>
